<?xml version="1.0" encoding="utf-8"?>
<!-- Generator: Adobe Illustrator 25.4.1, SVG Export Plug-In . SVG Version: 6.00 Build 0)  -->
<svg version="1.1" id="Layer_1" xmlns="http://www.w3.org/2000/svg" xmlns:xlink="http://www.w3.org/1999/xlink" x="0px" y="0px"
	 viewBox="0 0 236.7 44" style="enable-background:new 0 0 236.7 44;" xml:space="preserve">
<style type="text/css">
	.st0{fill:black;}
</style>
<linearGradient id="SVGID_1_" gradientUnits="userSpaceOnUse" x1="0" y1="23.3712" x2="236.7029" y2="23.3712" gradientTransform="matrix(1 0 0 -1 0 45.3712)">
	<stop  offset="0" style="stop-color:#66FFFF"/>
	<stop  offset="7.272730e-04" style="stop-color:#66FFFF"/>
	<stop  offset="1" style="stop-color:#99FF66"/>
</linearGradient>
<path class="st0" d="M38.9,16c0,8.6-7,15.6-15.6,15.6H9v12H0V9h9V23h14.3c3.8,0,7-3.1,7-7s-3.1-7-7-7H9V0.4h14.3
	C32,0.4,38.9,7.4,38.9,16z M86.7,22.1c0,12.6-9.4,21.9-22,21.9s-22-9.4-22-21.9C42.7,9.4,52.1,0,64.7,0S86.7,9.4,86.7,22.1z
	 M77.5,22c0-7.4-5.4-12.9-12.8-12.9C57.4,9.2,52,14.7,52,22c0,7.3,5.4,12.7,12.8,12.7C72.1,34.8,77.5,29.3,77.5,22z M175.6,27
	c0,4.8-3.9,8.7-8.7,8.7c-4.8,0-8.7-3.9-8.7-8.7V0.4h-9v25.8c0,9.8,7.9,17.7,17.7,17.7s17.7-7.9,17.7-17.7V0.4h-9L175.6,27L175.6,27z
	 M130.7,21.8c0,12.5-9.4,21.7-21.9,21.7H91.7V0.4h17.1C121.2,0.4,130.7,9.5,130.7,21.8z M121.6,21.8c0-7.3-4.9-12.6-11.8-12.6h-9
	v25.6h9C116.6,34.8,121.6,29.2,121.6,21.8z M227.4,0.5L214,30.2L201.2,0.5h-11.1v43.1h9.1V18.3L210,43.6h6.6l11-25.3v25.3h9.1V0.5
	H227.4z M134.7,43.9h9V0.5h-9V43.9z"/>
</svg>
